<svg width="38" height="31" viewBox="0 0 38 31" fill="none" xmlns="http://www.w3.org/2000/svg">
<path d="M21.0373 17.7375C20.3882 11.4951 21.8788 5.21557 25.2454 0C19.5811 5.78883 16.2604 13.6054 15.9651 21.8515C15.9 23.6912 17.2848 25.2381 19.0576 25.3068C20.8303 25.3756 22.321 23.9386 22.386 22.0989C22.4127 21.4102 22.2311 20.7307 21.8652 20.1533C21.4097 19.4275 21.1249 18.5997 21.0374 17.7376L21.0373 17.7375Z" fill="#9AB898"/>
<path d="M22.2668 16.5479H33.125C35.3219 16.5479 37.1 18.3947 37.1 20.6729V26.1729C37.1 28.4512 35.3219 30.2979 33.125 30.2979H3.975C1.7808 30.2979 0 28.4512 0 26.1729V20.6729C0 18.3947 1.7808 16.5479 3.975 16.5479H15.2292C14.9006 18.2805 14.7045 20.0349 14.6421 21.799C14.5492 24.3977 16.5024 26.5827 19.0081 26.679C21.5111 26.7754 23.6178 24.7473 23.7106 22.1483C23.7437 21.1763 23.4879 20.2165 22.9754 19.401C22.6335 18.8565 22.4214 18.235 22.354 17.5902C22.3179 17.2437 22.2862 16.8956 22.2661 16.5479L22.2668 16.5479Z" fill="#9AB898"/>
</svg>
