<svg width="79" height="82" viewBox="0 0 79 82" fill="none" xmlns="http://www.w3.org/2000/svg">
<rect y="0.302124" width="79" height="80.8195" rx="5" fill="#FDCEA9"/>
<path fill-rule="evenodd" clip-rule="evenodd" d="M38.3485 26.4689C38.8036 26.9302 39.5434 26.9302 39.9985 26.4689L42.5708 23.8652C47.3239 19.055 55.0298 19.055 59.7828 23.8652C64.5359 28.6755 64.5359 36.4751 59.7828 41.2852L41.6488 59.6373C40.9929 60.3022 40.1027 60.675 39.1742 60.675C38.2457 60.675 37.3554 60.3022 36.6996 59.6373L18.5656 41.2852C16.2836 38.9746 15 35.8425 15 32.5755C15 29.3086 16.2836 26.1761 18.5656 23.8654C20.8472 21.556 23.9437 20.2585 27.1718 20.2585C30.3988 20.2585 33.4952 21.5559 35.7773 23.8654L38.3496 26.4691L38.3485 26.4689Z" fill="white"/>
</svg>
