<svg width="42" height="53" viewBox="0 0 42 53" fill="none" xmlns="http://www.w3.org/2000/svg">
<path fill-rule="evenodd" clip-rule="evenodd" d="M0.252594 4.91482C-0.715861 17.7097 0.898224 31.4887 8.64609 41.9874C12.0358 46.4165 16.2324 49.8614 21.0747 52.6499C25.7558 49.8611 29.9523 46.4166 33.3421 41.9874C41.2512 31.4887 42.7041 17.7097 41.7356 4.91482C34.1494 6.71938 27.0476 5.73518 21.0756 0.649902C14.9422 5.73516 7.83975 6.71938 0.253362 4.91482H0.252594ZM21.0748 14.9209C23.4962 14.9209 25.433 16.8893 25.433 19.35C25.433 20.8265 24.6258 22.1387 23.4961 22.9587V27.7159C23.9805 28.2082 24.1417 28.8643 24.1417 29.6843C24.1417 31.4889 22.6888 32.8012 21.0748 32.8012C19.2991 32.8012 17.8467 31.4889 17.8467 29.6843C17.8467 28.864 18.1695 28.2078 18.4923 27.7159V22.9587C17.3623 22.1383 16.7166 20.8261 16.7166 19.35C16.7166 16.8892 18.6535 14.9209 21.0748 14.9209H21.0748Z" fill="#FDCEA9"/>
</svg>
