<svg width="79" height="82" viewBox="0 0 79 82" fill="none" xmlns="http://www.w3.org/2000/svg">
<rect y="0.965576" width="79" height="80.8195" rx="5" fill="#FDCEA9"/>
<path d="M42.9749 47.3115H38.4178C37.5392 47.3115 36.7705 47.956 36.7705 48.7985V51.3263C36.7705 52.1194 37.4844 52.8134 38.4178 52.8134H42.9749C43.8535 52.8134 44.6222 52.1689 44.6222 51.3263V48.7985C44.6222 48.0054 43.8535 47.3115 42.9749 47.3115Z" fill="white"/>
<path d="M31.2251 47.3115H26.668C25.7894 47.3115 25.0208 47.956 25.0208 48.7985V51.3263C25.0208 52.1194 25.7346 52.8134 26.668 52.8134H31.2251C32.1037 52.8134 32.8724 52.1689 32.8724 51.3263V48.7985C32.8724 48.0054 32.1037 47.3115 31.2251 47.3115Z" fill="white"/>
<path d="M42.9749 38.0427H38.4178C37.5392 38.0427 36.7705 38.6872 36.7705 39.5298V42.0575C36.7705 42.8507 37.4844 43.5446 38.4178 43.5446H42.9749C43.8535 43.5446 44.6222 42.9001 44.6222 42.0575V39.5298C44.6222 38.7367 43.8535 38.0427 42.9749 38.0427Z" fill="white"/>
<path d="M31.2251 38.0427H26.668C25.7894 38.0427 25.0208 38.6872 25.0208 39.5298V42.0575C25.0208 42.8507 25.7346 43.5446 26.668 43.5446H31.2251C32.1037 43.5446 32.8724 42.9001 32.8724 42.0575V39.5298C32.8724 38.7367 32.1037 38.0427 31.2251 38.0427Z" fill="white"/>
<path d="M54.7247 38.0427H50.1675C49.2889 38.0427 48.5203 38.6872 48.5203 39.5298V42.0575C48.5203 42.8507 49.2342 43.5446 50.1675 43.5446H54.7247C55.6032 43.5446 56.3719 42.9001 56.3719 42.0575V39.5298C56.3719 38.7367 55.6033 38.0427 54.7247 38.0427Z" fill="white"/>
<path d="M64.5527 47.7575V28.0801C64.5527 26.7914 64.0035 25.6513 63.1252 24.7592V24.7097H63.0705C62.0272 23.6687 60.5446 23.0246 58.8978 23.0246H54.7799L54.7795 20.7939C54.7795 19.852 53.9561 19.1087 52.9128 19.1087H50.1127C49.0694 19.1087 48.246 19.8521 48.246 20.7939V23.0242L33.0922 23.0246V20.7939C33.0922 19.852 32.2688 19.1087 31.2255 19.1087H28.4254C27.3821 19.1087 26.5588 19.8521 26.5588 20.7939V23.0242H22.4409C20.7936 23.0242 19.3111 23.6687 18.2682 24.7094L18.2674 24.7097V24.7592C17.3888 25.6512 16.84 26.7914 16.84 28.08V55.0932C16.84 57.8688 19.3658 60.149 22.4404 60.149H48.74C50.5519 63.2219 54.1206 65.3036 58.2385 65.3036C64.1683 65.3036 69 60.9418 69 55.5888C69 52.3672 67.2428 49.4923 64.5527 47.7574L64.5527 47.7575ZM47.4771 55.5889C47.4771 55.9855 47.5319 56.382 47.587 56.7785H22.4404C21.3971 56.7785 20.5738 56.0352 20.5738 55.0934L20.5734 34.4742H60.764V46.1716C59.9406 45.9735 59.1168 45.8743 58.2382 45.8743C52.3087 45.8743 47.4768 50.2358 47.4768 55.5891L47.4771 55.5889ZM62.6859 54.5977L58.2387 58.9098C57.9641 59.1577 57.5799 59.3063 57.1954 59.3063C56.8108 59.3063 56.4267 59.1577 56.1521 58.9098L53.5167 56.3323C52.9675 55.8365 53.0226 55.0437 53.5715 54.5479C54.1207 54.0521 54.9989 54.1019 55.5481 54.5974L57.1953 56.1836L60.5993 52.8627C61.1486 52.367 62.0268 52.3175 62.5759 52.8133C63.1799 53.3091 63.2347 54.1019 62.6859 54.5977H62.6859Z" fill="white"/>
</svg>
