<svg width="33" height="37" viewBox="0 0 33 37" fill="none" xmlns="http://www.w3.org/2000/svg">
<path d="M17.6421 3.28367H14.1376C13.8153 3.28367 13.5535 3.00837 13.5535 2.66948C13.5535 1.65357 12.7673 0.826904 11.8012 0.826904C10.8351 0.826904 10.049 1.65357 10.049 2.66948C10.049 3.00837 9.78716 3.28367 9.46487 3.28367H5.96036V5.12624H17.6421V3.28367Z" fill="#9AB898"/>
<path d="M10.6331 18.6385V21.0952H12.9694V18.6385C12.9694 18.2996 13.2312 18.0243 13.5535 18.0243H15.8898V15.5675H13.5535C13.2312 15.5675 12.9694 15.2922 12.9694 14.9533V12.4966H10.6331V14.9533C10.6331 15.2922 10.3713 15.5675 10.049 15.5675H7.71265V18.0243H10.049C10.3713 18.0243 10.6331 18.2996 10.6331 18.6385Z" fill="#9AB898"/>
<path d="M22.8988 3.28369H18.8102V4.51207H21.1465C21.4688 4.51207 21.7306 4.78736 21.7306 5.12626V33.379C21.7306 33.7179 21.4688 33.9932 21.1465 33.9932H2.45581C2.13352 33.9932 1.87172 33.7179 1.87172 33.379V5.12626C1.87172 4.78736 2.13352 4.51207 2.45581 4.51207H4.79215V3.28369H0.703552V35.2216H22.8988V3.28369Z" fill="#9AB898"/>
<path d="M11.8012 23.5519C15.3438 23.5519 18.2261 20.521 18.2261 16.7958C18.2261 13.0707 15.3438 10.0397 11.8012 10.0397C8.25863 10.0397 5.37625 13.0707 5.37625 16.7958C5.37625 20.521 8.25863 23.5519 11.8012 23.5519ZM7.12851 14.3391H9.46485V11.8823C9.46485 11.5434 9.72665 11.2681 10.0489 11.2681H13.5534C13.8757 11.2681 14.1375 11.5434 14.1375 11.8823V14.3391H16.4739C16.7962 14.3391 17.058 14.6144 17.058 14.9533V18.6384C17.058 18.9773 16.7962 19.2526 16.4739 19.2526H14.1375V21.7093C14.1375 22.0482 13.8757 22.3235 13.5534 22.3235H10.0489C9.72665 22.3235 9.46485 22.0482 9.46485 21.7093V19.2526H7.12851C6.80622 19.2526 6.54442 18.9773 6.54442 18.6384V14.9533C6.54442 14.6144 6.80622 14.3391 7.12851 14.3391Z" fill="#9AB898"/>
<path d="M3.03998 5.74036V32.7647H20.5625V5.74036H18.8103C18.8103 6.07926 18.5485 6.35455 18.2262 6.35455H5.37632C5.05403 6.35455 4.79223 6.07926 4.79223 5.74036H3.03998ZM18.8103 29.0796H4.79223V27.8512H18.8103V29.0796ZM11.8013 8.81131C15.9879 8.81131 19.3944 12.3933 19.3944 16.7958C19.3944 21.1982 15.9879 24.7803 11.8013 24.7803C7.6146 24.7803 4.20815 21.1982 4.20815 16.7958C4.20815 12.3933 7.6146 8.81131 11.8013 8.81131Z" fill="#9AB898"/>
<path d="M31.6601 5.12621H30.4919V4.51202H29.3237V5.12621H28.1556C27.8333 5.12621 27.5715 5.4015 27.5715 5.7404V6.35459H26.4033C26.081 6.35459 25.8192 6.62989 25.8192 6.96879V19.8668H26.9874V7.58298H27.5715V30.9222C27.5715 31.005 27.5871 31.0881 27.6187 31.1643L29.3237 35.3474V36.4499H30.4919V35.3474L32.197 31.164C32.2285 31.0881 32.2442 31.005 32.2442 30.9222V5.7404C32.2442 5.4015 31.9824 5.12621 31.6601 5.12621L31.6601 5.12621ZM31.076 30.7966L29.9078 33.663L28.7396 30.7966V22.3235H31.076V30.7966Z" fill="#9AB898"/>
</svg>
