<svg width="43" height="35" viewBox="0 0 43 35" fill="none" xmlns="http://www.w3.org/2000/svg">
<path fill-rule="evenodd" clip-rule="evenodd" d="M24.5974 4.69044C24.4651 3.93357 24.763 3.15758 25.2719 2.95988L31.5304 0.523417C33.1533 -0.108717 34.8349 0.236091 36.4562 1.03688L42.5398 4.03919L41.6563 11.7789L38.953 11.6056C38.143 11.5579 37.3617 11.1286 36.7321 10.3871L34.4525 7.71604C34.4196 7.67633 34.3802 7.64503 34.3373 7.63709L31.3394 6.90311C30.8221 6.77883 30.4706 6.07429 30.5478 5.33653L30.5968 4.87213C30.6749 4.14843 31.1535 3.6481 31.6618 3.77233L36.0145 4.45959L31.7479 3.03929C31.1013 2.88417 30.5607 3.46024 30.2909 4.33161L30.2419 4.51289L25.7104 5.71826C25.7104 5.71873 25.6994 5.71592 25.6994 5.71592C25.2283 5.86916 24.7491 5.45149 24.608 4.75722L24.6071 4.74134L24.6058 4.71751L24.5974 4.69044Z" fill="#9AB898"/>
<path fill-rule="evenodd" clip-rule="evenodd" d="M12.7706 15.1056C12.4805 15.0897 12.1862 15.1098 11.8951 15.1687L5.07603 16.9348L0.857351 17.0058L0.769897 27.4058C0.769897 27.4058 6.56474 28.4476 9.38471 29.4989C12.7512 30.7533 15.8456 34.2466 19.228 34.5026C22.3053 34.7353 25.491 33.4907 27.6569 32.0867C27.6569 32.0867 35.1333 27.2072 38.8558 24.7161C39.4567 24.3134 40.1108 22.9118 39.6465 21.4826C39.3318 20.5122 38.3779 19.9015 37.585 20.3379C35.7111 21.3691 28.0466 25.3133 28.0466 25.3133L26.9736 25.3175H26.9743C26.9749 25.3651 26.974 25.4132 26.9714 25.4609C26.9046 26.5102 26.5402 27.5675 25.9181 28.2123C25.2962 28.8579 24.5056 29.0771 23.6562 28.9804L23.6566 28.9799C23.6194 28.9748 23.5827 28.9668 23.5462 28.9565L15.6513 26.8635C15.3315 26.785 15.053 26.5018 14.8919 26.0912C14.7312 25.681 14.7051 25.1871 14.8209 24.7456L15.8458 25.3137L23.7408 27.4068C25.0887 27.5596 25.8086 26.6766 25.8951 25.3137C25.8787 23.977 25.6667 22.8347 24.4578 22.1741L18.7144 19.0303L15.2611 16.1524C14.4966 15.5156 13.6417 15.1549 12.7708 15.1101L12.7706 15.1056Z" fill="#9AB898"/>
<path fill-rule="evenodd" clip-rule="evenodd" d="M34.4985 18.0156C34.2981 18.016 34.0941 18.0712 33.8969 18.1833L26.4537 22.476C26.4921 22.555 26.5331 22.6246 26.5641 22.7045C26.7061 23.0745 26.791 23.4483 26.852 23.8164L27.8288 23.7454C28.0211 23.6464 33.3589 20.8852 35.9893 19.4896C35.9728 19.442 35.9783 19.3845 35.9619 19.3345H35.959C35.6753 18.5043 35.1009 18.0174 34.499 18.0179L34.4985 18.0156Z" fill="#9AB898"/>
<path fill-rule="evenodd" clip-rule="evenodd" d="M30.9098 15.8867C30.7097 15.8885 30.5054 15.9497 30.3112 16.0712L23.8506 20.1471L24.8362 20.6867C25.1215 20.8428 25.3745 21.0516 25.6097 21.2791L32.4007 17.363C32.3843 17.3154 32.3897 17.2626 32.3733 17.2159H32.3704C32.0867 16.3856 31.5081 15.8816 30.9079 15.8872L30.9098 15.8867Z" fill="#9AB898"/>
<path fill-rule="evenodd" clip-rule="evenodd" d="M26.4909 14.6524C26.2908 14.6542 26.0888 14.7155 25.8952 14.8407L20.5161 18.3237L22.3909 19.3496L27.8969 15.8787C27.6003 15.1209 27.0608 14.6454 26.4908 14.6523L26.4909 14.6524Z" fill="#9AB898"/>
</svg>
